<?xml version="1.0" encoding="UTF-8"?>
<svg width="53px" height="53px" viewBox="0 0 53 53" version="1.1" xmlns="http://www.w3.org/2000/svg" xmlns:xlink="http://www.w3.org/1999/xlink">
    <title>Group 31</title>
    <g id="2.-Games" stroke="none" stroke-width="1" fill="none" fill-rule="evenodd">
        <g id="Group-31">
            <circle id="Oval-Copy-5" fill-opacity="0.324437281" fill="#000001" cx="26.1074074" cy="26.1074074" r="26.1074074"></circle>
            <g id="Nintendo_Switch_Logo-Copy" transform="translate(13.000000, 13.000000)" fill="#FFFFFF" fill-rule="nonzero">
                <g id="Group" transform="translate(12.540844, 12.838859) scale(-1, 1) rotate(-180.000000) translate(-12.540844, -12.838859) translate(0.005129, 0.303145)">
                    <path d="M5.30378122,24.7087769 C2.83654837,24.2673654 0.851477449,22.4401273 0.225692818,20.0380276 C4.09904315e-14,19.1706028 -0.0153881467,18.6624663 0.0102587645,11.9335077 C0.0256469111,5.75374718 0.0307762934,5.61003181 0.133363938,5.1326915 C0.702725365,2.56121306 2.52878544,0.728842194 5.12425284,0.123184596 C5.46279207,0.0461942235 5.89366018,0.030796149 8.66865596,0.0153980745 C11.54111,-0.0051326915 11.8386142,-2.86229374e-15 11.9155549,0.0769903726 C11.9924956,0.153980745 11.997625,1.14459021 11.997625,12.3749192 C11.997625,20.7001448 11.9822369,24.6215211 11.9463312,24.6933788 C11.8950374,24.7857673 11.8078379,24.7909 8.8020199,24.7857673 C6.36043396,24.7806346 5.6269323,24.7652365 5.30378122,24.7087769 Z M9.94587214,12.3903173 L9.94587214,1.9914843 L7.85821357,2.01714776 C5.93469524,2.03767853 5.72951995,2.04794391 5.34481628,2.14546505 C3.6931552,2.57147844 2.46723285,3.84438594 2.12356424,5.50224529 C2.01071783,6.02064713 2.01071783,18.7907836 2.11843486,19.2989201 C2.42619779,20.7412064 3.42642733,21.9371235 4.77545485,22.4760561 C5.45253331,22.7480887 5.76542562,22.7788849 7.96080121,22.7840176 L9.94587214,22.7891503 L9.94587214,12.3903173 Z" id="Shape"></path>
                    <path d="M5.74490809,19.6530758 C5.42175701,19.5914835 4.92933632,19.3451143 4.66773783,19.1141432 C4.12915269,18.6470682 3.86242482,17.984951 3.90345987,17.2047819 C3.9239774,16.7992993 3.94962431,16.6915128 4.11376454,16.3630205 C4.35484551,15.8651494 4.71903165,15.5007283 5.21658172,15.2543592 C5.56025033,15.0849803 5.64744983,15.0644496 6.09370608,15.0490515 C6.49892728,15.0336534 6.64254998,15.0490515 6.91440724,15.1414399 C8.02748318,15.5161264 8.69943225,16.5991243 8.50964511,17.7077857 C8.28908168,19.0268874 7.03751241,19.9097103 5.74490809,19.6530758 Z" id="Path"></path>
                    <path d="M14.4956342,24.7549711 C14.4751166,24.7395731 14.4597285,19.1757355 14.4597285,12.3903173 C14.4597285,1.19591712 14.4648579,0.0615922981 14.5417986,0.030796149 C14.6802919,-0.020530766 18.6606925,9.50238152e-15 19.1531132,0.051326915 C21.2356424,0.287430724 23.0719613,1.55520553 24.0721908,3.43890331 C24.2004253,3.68013981 24.369695,4.08562244 24.4568945,4.33712432 C24.7800455,5.30207032 24.7698233,5.04543575 24.7698233,12.4211134 C24.7698233,18.3083106 24.759528,19.1860008 24.6877167,19.5606873 C24.1799078,22.2348196 22.1435431,24.2519674 19.4660055,24.7139096 C19.1069488,24.7755019 18.5529755,24.7909 16.7679505,24.7909 C15.5368988,24.7909 14.5110223,24.7755019 14.4956342,24.7549711 Z M19.9738144,13.575969 C20.773998,13.3655287 21.4305589,12.7547384 21.6972868,11.9745693 C21.8665564,11.4920963 21.861427,10.7837849 21.6921574,10.3423734 C21.3792651,9.53140812 20.7637392,8.96167937 19.9738144,8.75123902 C18.6914688,8.41761407 17.3270532,9.19265048 16.9526083,10.465558 C16.8397618,10.8556425 16.8448912,11.512627 16.9731258,11.912977 C17.3578295,13.1704864 18.6914688,13.909594 19.9738144,13.575969 Z" id="Shape"></path>
                </g>
            </g>
        </g>
    </g>
</svg>