<svg xmlns="http://www.w3.org/2000/svg" width="53" height="53" viewBox="0 0 53 53">
  <g fill="none" fill-rule="evenodd">
    <circle cx="26.107" cy="26.107" r="26.107" fill="#000001" fill-opacity=".324"/>
    <path fill="#FFF" fill-rule="nonzero" d="M11.5171717,25.5637133 C9.54632292,25.3748333 7.55096281,24.6665937 5.83686975,23.5475276 C4.40051104,22.6097846 4.07614882,22.2242938 4.07614882,21.4549857 C4.07614882,19.9096919 5.77413058,17.203143 8.67927392,14.117697 C10.3291954,12.3653759 12.6274263,10.3113982 12.8759734,10.3670186 C13.359074,10.4751281 17.2219806,14.2455463 18.6680783,16.0204438 C20.9548351,18.8271404 22.0061266,21.1252115 21.472039,22.1497678 C21.066046,22.9285964 18.5468555,24.4507974 16.6960882,25.0355977 C15.1707138,25.5175805 13.1674058,25.7218658 11.5171717,25.5637133 L11.5171717,25.5637133 Z M2.1361815,19.8483229 C0.942599013,18.0160235 0.339561906,16.2121476 0.048411865,13.6031379 C-0.0477265835,12.7416329 -0.0132755462,12.2488624 0.266717194,10.4806018 C0.615688303,8.2767139 1.86995296,5.72710327 3.37706949,4.15802048 C4.01896199,3.48973656 4.07628968,3.47345453 4.85871415,3.73720438 C5.80887515,4.05749694 6.82357109,4.75873456 8.39722122,6.18260034 L9.31537544,7.01336293 L8.81399774,7.62970751 C6.48658596,10.4907996 4.02966923,14.5462995 3.1037321,17.0553354 C2.6003556,18.4193474 2.39732474,19.7885552 2.61391298,20.3585937 C2.76014247,20.7434534 2.62582679,20.5999891 2.1361815,19.8483229 Z M23.0872422,20.1599601 C23.2051538,19.5839832 23.0560199,18.5261555 22.7064936,17.4592472 C21.9495266,15.1486551 19.4193815,10.8501901 17.0960422,7.92765107 L16.3646597,7.0076411 L17.1559266,6.28061541 C18.1890873,5.33133476 18.9064108,4.76292038 19.680388,4.28021097 C20.2911475,3.89929541 21.1639345,3.56209136 21.5390997,3.56209136 C21.7703989,3.56209136 22.5846916,4.407695 23.2420489,5.33052187 C24.2601578,6.75978894 25.0091474,8.49237411 25.3886132,10.2960142 C25.6337969,11.4614042 25.6542295,13.95595 25.4281124,15.1184722 C25.2425458,16.0725095 24.8507238,17.3100391 24.4684869,18.1493436 C24.1820834,18.7782196 23.4697573,19.9995813 23.1575968,20.397008 C22.9971091,20.6013319 22.9969772,20.6008863 23.0872415,20.1599601 L23.0872422,20.1599601 Z M11.7281875,3.12577649 C10.656194,2.5810502 9.00244743,1.99632051 8.08891128,1.83900509 C7.76865111,1.78385475 7.22233226,1.75309703 6.87486938,1.7706544 C6.1211357,1.80874076 6.15480075,1.76929992 7.36394299,1.19767004 C8.36920154,0.722427255 9.20772583,0.442963086 10.346033,0.203795966 C11.626546,-0.0652497541 14.0334523,-0.0684072077 15.2935774,0.197305458 C16.6546183,0.484297654 18.2572893,1.08109302 19.1603765,1.63720728 L19.4287846,1.80249021 L18.8129638,1.77137262 C17.5892185,1.70953637 15.8057729,2.20424821 13.8910061,3.13667986 C13.3134636,3.41792534 12.811014,3.64254836 12.7744514,3.63584189 C12.7378896,3.62913549 12.2670711,3.39960595 11.7281875,3.12577629 L11.7281875,3.12577649 Z" transform="translate(13 13)"/>
  </g>
</svg>
