<svg xmlns="http://www.w3.org/2000/svg" width="53" height="53" viewBox="0 0 53 53">
  <g fill="none" fill-rule="evenodd">
    <circle cx="26.107" cy="26.107" r="26.107" fill="#000001" fill-opacity=".324"/>
    <path fill="#FFF" fill-rule="nonzero" d="M27,13.5 C27,20.955375 20.955375,27 13.5,27 C6.99525,27 1.566,22.397625 0.288,16.270875 L5.6475,18.52425 C5.968125,20.145375 7.4025,21.389625 9.151875,21.375 C11.09025,21.355875 12.645,19.78425 12.657375,17.854875 L12.66525,17.8515 L16.7175,14.832 C19.3095,14.859 21.375,12.769875 21.375,10.229625 C21.375,7.687125 19.31175,5.625 16.770375,5.625 C14.257125,5.625 12.216375,7.639875 12.169125,10.141875 L9.199125,14.2965 C8.447625,14.28075 7.7715,14.486625 7.18425,14.87025 L0.1035,11.8935 C0.9,5.196375 6.589125,0 13.5,0 C20.955375,0 27,6.044625 27,13.5 Z M8.350875,19.661625 L6.613875,18.9315 C7.041375,19.89675 8.004375,20.575125 9.144,20.5706473 C10.65825,20.557125 11.86875,19.321875 11.85525,17.80875 C11.84175,16.313625 10.61325,15.0975 9.11925,15.0975 C8.796375,15.098625 8.478,15.15375 8.15175,15.2775 L9.8865,16.0065 C10.89675,16.43175 11.370375,17.593875 10.945125,18.603 C10.522125,19.611 9.36,20.08575 8.350875,19.661625 L8.350875,19.661625 Z M16.770375,13.359375 C15.04575,13.359375 13.64175,11.95425 13.64175,10.229625 C13.64175,8.503875 15.04575,7.099875 16.770375,7.099875 C18.496125,7.099875 19.899,8.503875 19.899,10.229625 C19.899,11.95425 18.496125,13.359375 16.770375,13.359375 Z M16.770375,12.592125 C18.07425,12.592125 19.132875,11.532375 19.132875,10.2285 C19.132875,8.92575 18.075375,7.86375 16.770375,7.86375 C15.465375,7.86375 14.405625,8.924625 14.405625,10.2285 C14.40675,11.532375 15.4665,12.592125 16.770375,12.592125 L16.770375,12.592125 Z" transform="translate(13 13)"/>
  </g>
</svg>
